<?xml version="1.0" encoding="iso-8859-1"?>
<!-- Generator: Adobe Illustrator 19.0.0, SVG Export Plug-In . SVG Version: 6.00 Build 0)  -->
<svg version="1.1" id="Capa_1" xmlns="http://www.w3.org/2000/svg" xmlns:xlink="http://www.w3.org/1999/xlink" x="0px" y="0px"
	 viewBox="0 0 400 400" style="enable-background:new 0 0 400 400;" xml:space="preserve">
<path id="XMLID_483_" d="M289.41,206.249l-28.12-46.868c4.12-9.007,12.851-28.314,16.788-38.661
	c7.637-20.075-4.662-69.281-8.078-82.045V0h-20v34.236l-23.041,13.345c-16.654,9.645-37.341,9.639-53.988-0.018L150,34.24V0h-20
	v38.675c-3.417,12.764-15.715,61.971-8.078,82.046c3.937,10.347,12.667,29.654,16.787,38.661l-28.119,46.866L67.534,400h264.932
	L289.41,206.249z M236.983,64.888l16.547-9.583c5.102,22.073,9.301,49.248,5.855,58.304c-3.313,8.707-10.546,24.844-14.91,34.44
	l-44.47,27.587l-44.512-27.659c-4.367-9.603-11.572-25.679-14.877-34.367c-3.44-9.042,0.757-36.214,5.856-58.294l16.464,9.55
	C185.768,78.107,214.142,78.118,236.983,64.888z M129.41,213.753l25.541-42.568l45.045,27.99l45.072-27.96l25.522,42.54L307.534,380
	H92.467L129.41,213.753z"/>
<g>
</g>
<g>
</g>
<g>
</g>
<g>
</g>
<g>
</g>
<g>
</g>
<g>
</g>
<g>
</g>
<g>
</g>
<g>
</g>
<g>
</g>
<g>
</g>
<g>
</g>
<g>
</g>
<g>
</g>
</svg>
