<svg width="320" height="512" xmlns="http://www.w3.org/2000/svg" role="img" class="svg-inline--fa fa-mobile-alt fa-w-10" data-icon="mobile-alt" data-prefix="fas" focusable="false" aria-hidden="true">

 <g>
  <title>Layer 1</title>
  <g id="svg_3">
   <path stroke="null" id="svg_1" d="m287.34723,206.94456l-81.08325,0c-9.59244,0 -17.37498,7.5026 -17.37498,16.74998l0,145.16652c0,9.24739 7.78254,16.74998 17.37498,16.74998l81.08325,0c9.59244,0 17.37498,-7.5026 17.37498,-16.74998l0,-145.16652c0,-9.24739 -7.78254,-16.74998 -17.37498,-16.74998zm-40.54162,167.49983c-6.40702,0 -11.58332,-4.9901 -11.58332,-11.16666s5.1763,-11.16666 11.58332,-11.16666s11.58332,4.9901 11.58332,11.16666s-5.1763,11.16666 -11.58332,11.16666zm40.54162,-37.68746c0,2.30312 -1.95469,4.1875 -4.34375,4.1875l-72.39576,0c-2.38906,0 -4.34375,-1.88437 -4.34375,-4.1875l0,-108.87489c0,-2.30312 1.95469,-4.1875 4.34375,-4.1875l72.39576,0c2.38906,0 4.34375,1.88437 4.34375,4.1875l0,108.87489z" fill="currentColor"/>
   <g stroke="null">
    <path stroke="null" d="m243.75678,287.18048l-86.18685,0c-0.26305,7.98762 -5.22894,12.90277 -11.63803,12.90277l-21.61247,0c-6.6437,0 -11.73756,-7.04411 -11.6487,-12.90277l-85.03869,0c-3.12812,0 -5.68749,2.90312 -5.68749,6.45138l0,6.45138c0,14.19305 10.23749,25.80554 22.74997,25.80554l181.99979,0c12.51249,0 22.74997,-11.61249 22.74997,-25.80554l0,-6.45138c0,-3.54826 -2.55937,-6.45138 -5.68749,-6.45138zm-17.06248,-148.38184c0,-10.64478 -7.67812,-19.35415 -17.06248,-19.35415l-147.87483,0c-9.38436,0 -17.06248,8.70937 -17.06248,19.35415l0,135.47907l181.99979,0l0,-135.47907zm-22.74997,109.67354l-136.49984,0l0,-103.22215l136.49984,0l0,103.22215z" fill="currentColor"/>
   </g>
   <rect stroke="null" id="svg_2" height="118.05562" width="77.77782" y="223.16693" x="207.22226" fill="#ffffff"/>
  </g>
 </g>
</svg>