<svg width="161" height="234" viewBox="0 0 161 234" fill="none" xmlns="http://www.w3.org/2000/svg">
<path d="M0 24.3115C0 19.3409 4.00456 15.3115 8.94444 15.3115H152.056C156.996 15.3115 161 19.3409 161 24.3115V41.4115H0V24.3115Z" fill="white"/>
<path d="M149.372 202.511H11.6278V233.111H149.372V202.511Z" fill="white"/>
<path d="M133.272 202.511V40.5115H154.739L149.372 202.511H133.272Z" fill="white"/>
<path d="M80.0527 56.7512C83.7575 56.7293 86.7786 59.7336 86.8004 63.4614L87.4951 182.102C87.517 185.83 84.5313 188.87 80.8265 188.892C77.1216 188.914 74.1005 185.91 74.0787 182.182L73.384 63.5409C73.3622 59.813 76.3478 56.7732 80.0527 56.7512Z" fill="white"/>
<path d="M50.536 56.7512C54.2408 56.7293 57.2619 59.7336 57.2837 63.4614L57.9784 182.102C58.0003 185.83 55.0146 188.87 51.3098 188.892C47.6049 188.914 44.5839 185.91 44.562 182.182L43.8673 63.5409C43.8455 59.813 46.8311 56.7732 50.536 56.7512Z" fill="white"/>
<path d="M109.569 55.8512C113.274 55.8293 116.296 58.8336 116.317 62.5614L117.012 181.202C117.034 184.93 114.048 187.97 110.343 187.992C106.638 188.014 103.617 185.01 103.595 181.282L102.9 62.6409C102.879 58.913 105.865 55.8732 109.569 55.8512Z" fill="white"/>
<path d="M91.8469 7.97882e-05C94.3174 -0.0145636 96.3317 1.98825 96.346 4.47348L96.4247 17.9733L67.8031 18.1429L67.724 4.64318C67.7095 2.15794 69.6999 0.131385 72.1699 0.116742L91.8469 7.97882e-05Z" fill="white"/>
<path d="M11.6278 202.636L6.34239 40.6366H27.8091V202.636H11.6278Z" fill="white"/>
</svg>
