<svg width="180" height="260" viewBox="0 0 180 260" fill="none" xmlns="http://www.w3.org/2000/svg">
<g id="Group 1">
<path id="Rectangle 1" d="M0 27.0432C0 21.5203 4.47715 17.0432 10 17.0432H170C175.523 17.0432 180 21.5203 180 27.0432V46.0432H0V27.0432Z" fill="black"/>
<rect id="Rectangle 4" x="13" y="225.043" width="154" height="34" fill="black"/>
<path id="Rectangle 2" d="M149 225.043L149 45.0432H173L167 225.043H149Z" fill="black"/>
<path id="Rectangle 7" d="M89.4999 63.0873C93.6419 63.0629 97.0195 66.401 97.0439 70.543L97.8206 202.366C97.8451 206.508 94.507 209.886 90.365 209.91V209.91C86.2229 209.935 82.8453 206.597 82.8209 202.455L82.0442 70.6314C82.0198 66.4893 85.3578 63.1117 89.4999 63.0873V63.0873Z" fill="black"/>
<path id="Rectangle 10" d="M56.4999 63.0873C60.6419 63.0629 64.0195 66.401 64.0439 70.543L64.8206 202.366C64.8451 206.508 61.507 209.886 57.365 209.91V209.91C53.2229 209.935 49.8453 206.597 49.8209 202.455L49.0442 70.6314C49.0198 66.4893 52.3578 63.1117 56.4999 63.0873V63.0873Z" fill="black"/>
<path id="Rectangle 9" d="M122.5 62.0873C126.642 62.0629 130.02 65.401 130.044 69.543L130.821 201.366C130.845 205.508 127.507 208.886 123.365 208.91V208.91C119.223 208.935 115.845 205.597 115.821 201.455L115.044 69.6314C115.02 65.4893 118.358 62.1117 122.5 62.0873V62.0873Z" fill="black"/>
<path id="Rectangle 8" d="M102.686 0.0294601C105.448 0.0131897 107.7 2.23854 107.716 4.99991L107.804 19.9997L75.8047 20.1882L75.7163 5.18846C75.7001 2.42708 77.9254 0.175355 80.6868 0.159085L102.686 0.0294601Z" fill="black"/>
<path id="Rectangle 3" d="M13 225.182L7.09087 45.1821H31.0909L31.0909 225.182H13Z" fill="black"/>
</g>
</svg>
