<svg width="421" height="421" viewBox="0 0 421 421" fill="none" xmlns="http://www.w3.org/2000/svg">
<path d="M421 210.5C421 326.756 326.756 421 210.5 421C94.2441 421 0 326.756 0 210.5C0 94.2441 94.2441 0 210.5 0C326.756 0 421 94.2441 421 210.5ZM22.029 210.5C22.029 314.59 106.41 398.971 210.5 398.971C314.59 398.971 398.971 314.59 398.971 210.5C398.971 106.41 314.59 22.029 210.5 22.029C106.41 22.029 22.029 106.41 22.029 210.5Z" fill="#2594C8"/>
<rect x="122.499" y="303.595" width="134.931" height="36" rx="18" transform="rotate(-123.433 122.499 303.595)" fill="#2DB0EE" stroke="white" stroke-width="6"/>
<rect x="104.11" y="272.96" width="282.897" height="36" rx="18" transform="rotate(-30.6141 104.11 272.96)" fill="#2594C8" stroke="white" stroke-width="6"/>
</svg>
